<svg width="100%" height="100%" viewBox="0 0 1024 1024" version="1.1" xmlns="http://www.w3.org/2000/svg" xmlns:xlink="http://www.w3.org/1999/xlink" xml:space="preserve" style="fill-rule:evenodd;clip-rule:evenodd;stroke-linejoin:round;stroke-miterlimit:1.41421;">
    <path d="M512,0C229.252,0 0,229.252 0,512C0,738.251 146.688,930.126 350.155,997.813C375.748,1002.5 385.092,986.688 385.092,973.187C385.092,960.999 384.623,920.625 384.374,877.873C255.666,901.333 222.667,846.332 211.905,817.5C206.38,802.691 181.498,757.251 159.507,745.237C141.519,735.409 116.247,712 158.59,711.502C199.024,711.026 227.938,748.81 237.061,764.252C282.999,842.001 356.937,819.879 386.06,806.752C390.714,773.753 403.962,751.125 418.561,738.379C304.904,725.44 185.341,681.504 185.341,485.316C185.341,429.376 205.309,383.755 237.999,347.912C232.779,334.913 215.155,282.817 243.062,212.349C243.062,212.349 285.999,198.6 383.873,264.85C424.684,253.444 468.467,247.819 511.997,247.63C555.496,247.818 599.311,253.504 640.185,264.91C737.874,198.599 780.871,212.409 780.871,212.409C808.871,282.941 791.246,334.973 785.995,347.908C818.806,383.752 838.621,429.376 838.621,485.312C838.621,681.998 718.87,725.312 604.808,737.998C623.247,753.874 639.556,784.999 639.556,832.746C639.556,901.183 638.87,956.373 638.87,973.247C638.87,986.872 648.182,1002.81 674.12,997.809C877.436,929.998 1024,738.126 1024,512C1024,229.252 794.748,0 512,0Z" style="fill:white;fill-rule:nonzero;"/>
</svg>
